<svg height="511pt" viewBox="1 0 511.99945 511" width="511pt" xmlns="http://www.w3.org/2000/svg" fill="#228B22"><path d="m226.195312 207.300781c1.925782.003907 3.867188-.691406 5.304688-2.128906l7.820312-7.824219c2.929688-2.925781 2.929688-7.675781 0-10.605468-2.929687-2.929688-7.675781-2.929688-10.605468 0l-7.824219 7.824218c-2.925781 2.929688-2.925781 7.675782 0 10.605469 1.402344 1.402344 3.347656 2.125 5.304687 2.128906zm0 0"/><path d="m317.941406 291.613281 7.820313-7.824219c2.929687-2.925781 2.929687-7.675781 0-10.605468-2.925781-2.929688-7.675781-2.929688-10.605469 0l-7.820312 7.824218c-2.929688 2.929688-2.929688 7.675782 0 10.605469 2.890624 2.890625 7.714843 2.890625 10.605468 0zm0 0"/><path d="m259.796875 224.394531c-4.128906-.289062-7.710937 2.847657-7.988281 6.980469-.519532 7.777344 2.441406 15.503906 8.128906 21.191406 5.257812 5.257813 12.257812 8.1875 19.433594 8.1875 4.679687 0 9.089844-2.835937 8.742187-8.042968-.277343-4.132813-3.847656-7.261719-7.984375-6.980469-3.460937.226562-6.957031-1.140625-9.582031-3.769531-2.628906-2.625-4-6.117188-3.769531-9.582032.277344-4.132812-2.847656-7.707031-6.980469-7.984375zm0 0"/><path d="m326.890625 185.605469c13.261719 13.261719 35.445313 13.246093 48.691406 0 13.421875-13.421875 13.421875-35.265625 0-48.6875-13.273437-13.273438-35.425781-13.261719-48.691406 0-13.421875 13.421875-13.421875 35.265625 0 48.6875zm10.609375-38.078125c7.492188-7.496094 19.984375-7.488282 27.476562 0 7.574219 7.574218 7.574219 19.898437 0 27.472656-7.488281 7.488281-20 7.476562-27.476562 0-7.574219-7.574219-7.574219-19.898438 0-27.472656zm0 0"/><path d="m353.550781.5h-.238281c-12.625 0-23 10.269531-23.128906 22.898438-.128906 12.753906 10.144531 23.234374 22.898437 23.367187 29.960938.304687 58.132813 12.140625 79.320313 33.328125 21.195312 21.195312 33.03125 49.367188 33.332031 79.332031.125 12.523438 10.617187 22.902344 23.128906 22.902344h.238281c12.753907-.128906 23.027344-10.613281 22.898438-23.367187-.425781-42.148438-17.074219-81.773438-46.878906-111.582032-29.804688-29.800781-69.425782-46.449218-111.570313-46.878906zm135.398438 166.828125s-.082031 0-.085938 0c-4.40625.023437-8.082031-3.675781-8.128906-8.050781-.339844-33.917969-13.734375-65.804688-37.722656-89.789063-23.980469-23.984375-55.863281-37.378906-89.777344-37.722656-4.484375-.046875-8.09375-3.730469-8.046875-8.214844.042969-4.4375 3.691406-8.050781 8.214844-8.050781 38.191406.386719 74.101562 15.476562 101.113281 42.488281s42.101563 62.925781 42.484375 101.125c.042969 4.484375-3.566406 8.167969-8.050781 8.214844zm0 0"/><path d="m385.820312 126.679688c11.488282 11.488281 17.90625 26.761718 18.070313 43.007812.125 12.515625 10.628906 22.902344 23.128906 22.902344h.234375c12.753906-.128906 23.03125-10.613282 22.902344-23.367188-.285156-28.425781-11.515625-55.152344-31.621094-75.257812-20.101562-20.101563-46.824218-31.332032-75.25-31.617188l-.238281-.003906c-12.625 0-23 10.273438-23.128906 22.898438-.128907 12.753906 10.140625 23.238281 22.898437 23.367187 16.242188.164063 31.515625 6.582031 43.003906 18.070313zm-50.902343-41.285157c.046875-4.4375 3.691406-8.050781 8.214843-8.050781 24.476563.25 47.484376 9.917969 64.796876 27.230469 17.308593 17.308593 26.980468 40.324219 27.226562 64.800781.042969 4.484375-3.566406 8.167969-8.050781 8.214844 0 0-.082031 0-.085938 0-4.40625.023437-8.085937-3.667969-8.128906-8.050782-.203125-20.195312-8.179687-39.183593-22.460937-53.464843s-33.269532-22.257813-53.460938-22.464844c-4.484375-.046875-8.097656-3.730469-8.050781-8.214844zm0 0"/><path d="m215.070312 131.875c-15.097656-.007812-30.210937 5.546875-41.371093 16.707031l-26.882813 26.882813c-2.929687 2.929687-2.929687 7.675781 0 10.605468 2.929688 2.929688 7.679688 2.929688 10.605469 0 0 0 26.871094-26.871093 26.882813-26.882812 16.777343-16.773438 44.773437-16.757812 61.53125 0l107.480468 107.480469c16.964844 16.964843 16.964844 44.566406 0 61.53125l-110.078125 110.078125c-2.929687 2.929687-2.929687 7.679687 0 10.609375 2.820313 2.820312 7.671875 2.929687 10.605469 0 0 0 110.042969-110.042969 110.078125-110.082031 22.542969-22.539063 22.515625-60.230469 0-82.742188 0 0-107.433594-107.4375-107.480469-107.480469-11.113281-11.117187-26.234375-16.703125-41.371094-16.707031zm0 0"/><path d="m125.601562 196.679688-108.492187 108.492187c-22.8125 22.8125-22.8125 59.929687 0 82.742187 0 0 107.472656 107.472657 107.480469 107.480469 22.4375 22.4375 60.203125 22.542969 82.746094 0l25.292968-25.292969c2.929688-2.929687 2.929688-7.679687 0-10.605468-2.929687-2.929688-7.679687-2.929688-10.605468 0l-25.296876 25.292968c-16.960937 16.964844-44.566406 16.964844-61.527343 0l-107.480469-107.480468c-16.964844-16.964844-16.964844-44.566406 0-61.53125l108.492188-108.492188c2.925781-2.929687 2.925781-7.675781 0-10.605468-2.929688-2.929688-7.679688-2.929688-10.609376 0zm0 0"/><path d="m146.523438 291.734375c14.789062 14.785156 39.574218 14.761719 54.335937 0 14.808594-14.808594 14.792969-39.542969 0-54.339844-14.816406-14.816406-39.53125-14.800781-54.335937 0-14.796876 14.800781-14.773438 39.5625 0 54.339844zm10.609374-43.730469c9.023438-9.027344 24.105469-9.015625 33.121094 0 9.007813 9.007813 8.984375 24.132813 0 33.121094-9.035156 9.035156-24.09375 9.03125-33.125 0-9.023437-9.027344-9.015625-24.105469.003906-33.121094zm0 0"/><path d="m247.941406 377.085938c9.882813 0 19.765625-3.703126 27.167969-11.105469 14.980469-14.980469 14.980469-39.355469 0-54.335938-14.804687-14.804687-39.546875-14.789062-54.335937 0-14.980469 14.980469-14.980469 39.355469 0 54.335938 7.40625 7.40625 17.289062 11.105469 27.167968 11.105469zm-16.5625-54.835938c9.027344-9.027344 24.109375-9.011719 33.125 0 9.128906 9.132812 9.128906 23.992188 0 33.125-9.03125 9.027344-24.105468 9.019531-33.125 0-9.128906-9.132812-9.128906-23.992188 0-33.125zm0 0"/><path d="m105.363281 294.625c-9.886719.003906-19.769531 3.703125-27.164062 11.097656-14.800781 14.800782-14.78125 39.554688 0 54.335938 14.8125 14.8125 39.535156 14.796875 54.335937 0 14.804688-14.808594 14.789063-39.546875 0-54.335938-7.402344-7.398437-17.285156-11.097656-27.171875-11.097656zm16.5625 54.828125c-9.03125 9.03125-24.09375 9.023437-33.121093 0-9.03125-9.03125-9.023438-24.097656 0-33.121094 9.027343-9.027343 24.109374-9.015625 33.125 0 9.011718 9.011719 8.992187 24.125-.003907 33.121094zm0 0"/><path d="m179.613281 445.5625c10.265625 0 19.914063-4 27.167969-11.253906 14.980469-14.980469 14.980469-39.355469 0-54.335938-14.8125-14.8125-39.535156-14.800781-54.335938 0-14.980468 14.980469-14.980468 39.355469 0 54.335938 7.257813 7.253906 16.90625 11.253906 27.167969 11.253906zm-16.558593-54.984375c9.03125-9.03125 24.097656-9.023437 33.121093 0 9.132813 9.132813 9.132813 23.992187 0 33.121094-9.03125 9.035156-24.097656 9.023437-33.121093 0-9.132813-9.128907-9.132813-23.988281 0-33.121094zm0 0"/></svg>